<?xml version="1.0" encoding="utf-8"?>
<!-- Generator: Adobe Illustrator 28.2.0, SVG Export Plug-In . SVG Version: 6.00 Build 0)  -->
<svg version="1.1" id="Layer_1" xmlns="http://www.w3.org/2000/svg" xmlns:xlink="http://www.w3.org/1999/xlink" x="0px" y="0px"
	 viewBox="0 0 288.5 64" style="enable-background:new 0 0 288.5 64;" xml:space="preserve">
<style type="text/css">
	.st0{fill:#0661FF;}
	.st1{fill:#273347;}
</style>
<path class="st0" d="M32,0.8C14.8,0.8,0.8,14.7,0.8,32s14,31.2,31.2,31.2s31.2-14,31.2-31.2S49.2,0.8,32,0.8z M32,57.7
	C17.8,57.7,6.3,46.2,6.3,32S17.8,6.3,32,6.3S57.7,17.8,57.7,32S46.2,57.7,32,57.7z"/>
<path class="st0" d="M32,23.6c-0.1,0.3,0.4,0.9,0.5,1.1c0.7,1.8,1.6,3.7,3.3,4.8c1.5,1,3.1,1.8,4.7,2.5c-0.9,0.3-1.8,0.8-2.7,1.3
	c-0.9,0.5-1.8,1.1-2.6,1.8c-1.6,1.4-2.5,3.3-3.1,5.4c0.1-0.2-0.4-1-0.5-1.3c-0.2-0.5-0.4-1-0.7-1.4c-0.5-0.9-1-1.8-1.7-2.5
	c-1.5-1.6-3.5-2.4-5.5-3.1c0.2,0.1,1.2-0.5,1.4-0.6c0.5-0.2,1-0.5,1.5-0.7c0.9-0.5,1.7-1.1,2.4-1.8C30.4,27.4,31.4,25.6,32,23.6z"/>
<path class="st1" d="M30.2,16.8c0,0,0.1,12.8-13.4,13.4L30.2,16.8z"/>
<path class="st1" d="M17.2,33.4c0,0,12.8-0.1,13.4,13.4L17.2,33.4z"/>
<path class="st1" d="M46.8,30.6c0,0-12.8,0.1-13.4-13.4L46.8,30.6z"/>
<path class="st1" d="M33.8,47.2c0,0-0.1-12.8,13.4-13.4L33.8,47.2z"/>
<g>
	<g>
		<path class="st0" d="M68.7,43.3V18.1h16.4V22H73.6v6.7h9.3v3.8h-9.3v10.7H68.7z"/>
		<path class="st0" d="M92.7,43.7c-1.5,0-2.8-0.3-3.8-0.9c-1-0.6-1.8-1.5-2.4-2.7c-0.5-1.2-0.8-2.7-0.8-4.4V25.1h4.8v10.1
			c0,1.5,0.3,2.6,0.9,3.3s1.6,1.1,2.8,1.1c0.8,0,1.5-0.2,2.2-0.6c0.6-0.4,1.1-0.9,1.5-1.6s0.5-1.6,0.5-2.6v-9.7h4.9v18.1h-4.3
			l-0.4-3c-0.6,1-1.3,1.9-2.4,2.5C95.3,43.4,94.1,43.7,92.7,43.7z"/>
		<path class="st0" d="M113.6,43.3c-1.2,0-2.4-0.2-3.3-0.6c-1-0.4-1.7-1.1-2.2-2c-0.5-0.9-0.8-2.2-0.8-3.8v-7.7h-3.1v-4.1h3.1l0.5-5
			h4.3v5h4.8v4.1h-4.8V37c0,0.8,0.2,1.4,0.5,1.7c0.4,0.3,1,0.5,1.8,0.5h2.3v4.1H113.6z"/>
		<path class="st0" d="M125.1,43.7c-1.5,0-2.8-0.3-3.8-0.9c-1-0.6-1.8-1.5-2.4-2.7c-0.5-1.2-0.8-2.7-0.8-4.4V25.1h4.8v10.1
			c0,1.5,0.3,2.6,0.9,3.3s1.6,1.1,2.8,1.1c0.8,0,1.5-0.2,2.2-0.6c0.6-0.4,1.1-0.9,1.5-1.6s0.5-1.6,0.5-2.6v-9.7h4.9v18.1h-4.3
			l-0.4-3c-0.6,1-1.3,1.9-2.4,2.5C127.7,43.4,126.5,43.7,125.1,43.7z"/>
		<path class="st0" d="M137.8,43.3V25.1h4.3l0.4,3.3c0.5-0.8,1-1.4,1.7-2c0.7-0.6,1.4-1,2.3-1.3c0.9-0.3,1.8-0.5,2.8-0.5v5.1h-1.7
			c-0.7,0-1.4,0.1-2,0.2c-0.6,0.2-1.1,0.4-1.6,0.8s-0.8,0.9-1,1.5c-0.2,0.6-0.4,1.4-0.4,2.4v8.4H137.8z"/>
		<path class="st0" d="M158.5,43.7c-1.8,0-3.4-0.4-4.8-1.2s-2.5-1.9-3.3-3.3s-1.2-3-1.2-4.8c0-1.9,0.4-3.6,1.2-5s1.9-2.6,3.3-3.4
			c1.4-0.8,3-1.3,4.9-1.3c1.8,0,3.4,0.4,4.7,1.2s2.4,1.9,3.1,3.2s1.1,2.9,1.1,4.6c0,0.2,0,0.5,0,0.8c0,0.3,0,0.6-0.1,0.9h-14.7v-3
			h9.9c-0.1-1.1-0.5-2-1.2-2.7c-0.8-0.7-1.7-1-2.8-1c-0.8,0-1.6,0.2-2.3,0.6c-0.7,0.4-1.2,1-1.6,1.7c-0.4,0.8-0.6,1.7-0.6,2.9v1
			c0,1,0.2,1.8,0.6,2.6c0.4,0.7,0.9,1.3,1.6,1.7c0.7,0.4,1.5,0.6,2.3,0.6c0.9,0,1.7-0.2,2.2-0.6c0.6-0.4,1-0.9,1.3-1.5h4.9
			c-0.3,1.1-0.9,2.2-1.7,3.1c-0.8,0.9-1.8,1.6-2.9,2.2S159.9,43.7,158.5,43.7z"/>
		<path class="st0" d="M185.9,43.7c-2.5,0-4.7-0.5-6.5-1.6c-1.8-1.1-3.2-2.6-4.2-4.6c-1-2-1.5-4.2-1.5-6.8s0.5-4.8,1.5-6.8
			c1-2,2.4-3.5,4.2-4.6c1.8-1.1,4-1.7,6.5-1.7c3,0,5.5,0.8,7.5,2.3c2,1.5,3.2,3.6,3.6,6.4h-5.3c-0.3-1.3-1-2.4-1.9-3.1
			s-2.3-1.1-3.9-1.1c-1.5,0-2.8,0.4-3.9,1.1c-1.1,0.7-1.9,1.7-2.4,3c-0.6,1.3-0.8,2.8-0.8,4.6c0,1.8,0.3,3.3,0.8,4.6s1.4,2.3,2.4,3
			c1.1,0.7,2.3,1,3.9,1c1.6,0,2.9-0.4,3.9-1.1c1-0.7,1.6-1.7,1.9-3h5.3c-0.5,2.6-1.7,4.7-3.6,6.2C191.5,42.9,189,43.7,185.9,43.7z"
			/>
		<path class="st0" d="M207,43.7c-1.8,0-3.3-0.4-4.7-1.2c-1.4-0.8-2.5-1.9-3.3-3.3c-0.8-1.4-1.2-3.1-1.2-4.9c0-1.9,0.4-3.6,1.2-5
			c0.8-1.4,1.9-2.5,3.3-3.3c1.4-0.8,3-1.2,4.7-1.2s3.3,0.4,4.7,1.2c1.4,0.8,2.5,1.9,3.3,3.3c0.8,1.4,1.2,3.1,1.2,5
			c0,1.9-0.4,3.5-1.2,5c-0.8,1.4-1.9,2.5-3.3,3.3C210.3,43.3,208.7,43.7,207,43.7z M207,39.5c0.8,0,1.5-0.2,2.1-0.6s1.2-1,1.5-1.8
			c0.4-0.8,0.6-1.8,0.6-2.9c0-1.2-0.2-2.2-0.6-2.9c-0.4-0.8-0.9-1.4-1.5-1.8s-1.3-0.6-2.1-0.6c-0.8,0-1.5,0.2-2.2,0.6
			c-0.6,0.4-1.2,1-1.5,1.8c-0.4,0.8-0.6,1.8-0.6,2.9c0,1.2,0.2,2.1,0.6,2.9c0.4,0.8,0.9,1.4,1.5,1.8C205.5,39.3,206.2,39.5,207,39.5
			z"/>
		<path class="st0" d="M226.2,43.7c-1.8,0-3.3-0.4-4.7-1.2c-1.4-0.8-2.5-1.9-3.3-3.3c-0.8-1.4-1.2-3.1-1.2-4.9c0-1.9,0.4-3.6,1.2-5
			c0.8-1.4,1.9-2.5,3.3-3.3c1.4-0.8,3-1.2,4.7-1.2s3.3,0.4,4.7,1.2c1.4,0.8,2.5,1.9,3.3,3.3c0.8,1.4,1.2,3.1,1.2,5
			c0,1.9-0.4,3.5-1.2,5c-0.8,1.4-1.9,2.5-3.3,3.3C229.6,43.3,228,43.7,226.2,43.7z M226.2,39.5c0.8,0,1.5-0.2,2.1-0.6s1.2-1,1.5-1.8
			c0.4-0.8,0.6-1.8,0.6-2.9c0-1.2-0.2-2.2-0.6-2.9c-0.4-0.8-0.9-1.4-1.5-1.8s-1.3-0.6-2.1-0.6c-0.8,0-1.5,0.2-2.2,0.6
			c-0.6,0.4-1.2,1-1.5,1.8c-0.4,0.8-0.6,1.8-0.6,2.9c0,1.2,0.2,2.1,0.6,2.9c0.4,0.8,0.9,1.4,1.5,1.8
			C224.8,39.3,225.5,39.5,226.2,39.5z"/>
		<path class="st0" d="M236.9,43.3V17.3h4.9v25.9H236.9z"/>
		<path class="st0" d="M246.4,22.6c-0.9,0-1.6-0.3-2.2-0.8c-0.6-0.5-0.8-1.2-0.8-2s0.3-1.4,0.8-2c0.6-0.5,1.3-0.8,2.2-0.8
			s1.6,0.3,2.2,0.8c0.6,0.5,0.8,1.2,0.8,2s-0.3,1.4-0.8,2C248,22.4,247.2,22.6,246.4,22.6z M243.9,43.3V25.1h4.9v18.1H243.9z"/>
		<path class="st0" d="M251,43.3V25.1h4.3l0.3,3c0.6-1.1,1.4-1.9,2.4-2.5c1-0.6,2.2-0.9,3.7-0.9c1.5,0,2.8,0.3,3.8,1
			c1,0.6,1.8,1.6,2.4,2.8c0.6,1.2,0.8,2.7,0.8,4.4v10.5h-4.9v-10c0-1.4-0.3-2.5-0.9-3.3s-1.6-1.2-2.8-1.2c-0.8,0-1.5,0.2-2.1,0.6
			c-0.6,0.4-1.1,0.9-1.5,1.6c-0.4,0.7-0.5,1.6-0.5,2.6v9.6H251z"/>
		<path class="st0" d="M278.3,51.6c-1.7,0-3.2-0.2-4.5-0.6s-2.3-1.1-3-1.9c-0.7-0.9-1.1-1.9-1.1-3.2c0-0.9,0.2-1.7,0.6-2.4
			c0.4-0.7,1.1-1.4,1.9-2c0.8-0.6,1.9-1.1,3.1-1.6l1.8,2.4c-1.1,0.4-1.9,0.8-2.4,1.4c-0.5,0.6-0.7,1.1-0.7,1.7c0,0.6,0.2,1,0.5,1.4
			c0.4,0.4,0.9,0.7,1.5,0.8c0.6,0.2,1.4,0.3,2.1,0.3c0.8,0,1.4-0.1,2-0.3s1-0.5,1.3-0.8c0.3-0.4,0.5-0.8,0.5-1.3
			c0-0.7-0.2-1.2-0.7-1.6c-0.5-0.4-1.4-0.6-2.8-0.7c-1.2-0.1-2.3-0.2-3.2-0.4c-1-0.2-1.8-0.4-2.5-0.6c-0.7-0.2-1.3-0.5-1.8-0.8
			c-0.5-0.3-0.9-0.6-1.2-0.9v-0.8l3.9-4.1l3.5,1.1l-4.5,4.5l1.4-2.4c0.2,0.2,0.5,0.3,0.8,0.5c0.3,0.1,0.6,0.3,1,0.4
			c0.4,0.1,0.9,0.2,1.5,0.3c0.6,0.1,1.4,0.2,2.4,0.3c1.6,0.1,2.9,0.4,3.9,0.9c1,0.5,1.8,1.1,2.2,1.8c0.5,0.8,0.7,1.7,0.7,2.8
			c0,1.1-0.3,2.1-0.9,3c-0.6,0.9-1.5,1.7-2.7,2.3C281.7,51.3,280.2,51.6,278.3,51.6z M278.3,37.9c-1.5,0-2.8-0.3-3.9-0.9
			s-2-1.4-2.5-2.4c-0.6-1-0.9-2.1-0.9-3.3c0-1.2,0.3-2.3,0.9-3.3c0.6-1,1.4-1.8,2.5-2.4c1.1-0.6,2.4-0.9,3.9-0.9
			c1.5,0,2.8,0.3,3.9,0.9c1.1,0.6,1.9,1.4,2.5,2.4c0.6,1,0.9,2.1,0.9,3.3c0,1.2-0.3,2.3-0.9,3.3c-0.6,1-1.4,1.8-2.5,2.4
			S279.8,37.9,278.3,37.9z M278.3,34.2c0.9,0,1.7-0.2,2.2-0.7c0.6-0.5,0.8-1.2,0.8-2.2c0-0.9-0.3-1.6-0.8-2.1
			c-0.6-0.5-1.3-0.7-2.2-0.7c-0.9,0-1.7,0.2-2.3,0.7c-0.6,0.5-0.9,1.2-0.9,2.1c0,1,0.3,1.7,0.9,2.2
			C276.6,33.9,277.4,34.2,278.3,34.2z M281.3,28.5l-0.8-3.4h7.5V28L281.3,28.5z"/>
	</g>
</g>
</svg>
