<?xml version="1.0" encoding="UTF-8"?>
<svg id="Layer_1" data-name="Layer 1" xmlns="http://www.w3.org/2000/svg" viewBox="0 0 98.33 84">
  <defs>
    <style>
      .cls-1 {
      fill: #0661ff;
      }

      .cls-1, .cls-2 {
      stroke-width: 0px;
      }

      .cls-2 {
      fill: #fff;
      }
    </style>
  </defs>
  <path class="cls-1"
    d="M40.68,0h0c9.39,17.33,23.51,31.58,40.68,41.06h0s0,0,0,0c-17.17,9.48-31.29,23.73-40.68,41.06h0s0,0,0,0C31.29,64.79,17.17,50.54,0,41.06h0s0,0,0,0C17.17,31.58,31.29,17.33,40.68,0h0Z" />
  <path class="cls-1"
    d="M68.49,4.3c1.15,1.67,2.59,3.11,4.26,4.26-1.67,1.15-3.11,2.59-4.26,4.26-1.15-1.67-2.59-3.11-4.26-4.26,1.67-1.15,3.11-2.59,4.26-4.26M68.49,2.39c-1.42,2.6-3.57,4.75-6.17,6.17,2.6,1.42,4.75,3.57,6.17,6.17,1.42-2.6,3.57-4.75,6.17-6.17-2.6-1.42-4.75-3.57-6.17-6.17h0ZM68.49,14.73h0s0,0,0,0h0Z" />
  <g>
    <path class="cls-2"
      d="M86.5,82.99c-2.62-4.48-6.34-8.2-10.82-10.82,4.48-2.62,8.2-6.34,10.82-10.82,2.62,4.48,6.34,8.19,10.82,10.82-4.48,2.62-8.2,6.34-10.82,10.82Z" />
    <path class="cls-1"
      d="M86.5,62.32c2.49,4,5.85,7.36,9.85,9.85-4,2.49-7.36,5.85-9.85,9.85-2.49-4-5.85-7.36-9.85-9.85,4-2.49,7.36-5.85,9.85-9.85M86.5,60.33h0c-2.73,4.99-6.84,9.1-11.83,11.83h0c4.99,2.73,9.1,6.84,11.83,11.83h0s0,0,0,0c2.73-4.99,6.84-9.1,11.83-11.83h0s0,0,0,0c-4.99-2.73-9.1-6.84-11.83-11.83h0Z" />
  </g>
</svg>